<svg xmlns="http://www.w3.org/2000/svg" width="48.544" height="48.558" viewBox="0 0 48.544 48.558">
  <g id="Group" transform="translate(1290.54 1031.211)">
    <path id="Vector" d="M48.544,24.28A24.281,24.281,0,0,1,27.652,48.325a24.588,24.588,0,0,1-7.267-.077A24.28,24.28,0,1,1,48.544,24.28Z" transform="translate(-1290.54 -1031.211)" fill="#1877f2"/>
    <path id="Vector-2" data-name="Vector" d="M13.3,8.453v5.289h6.541l-1.036,7.125H13.3V37.283a24.6,24.6,0,0,1-3.379.233,24.4,24.4,0,0,1-3.888-.31V20.867H0V13.743H6.033V7.271A7.27,7.27,0,0,1,13.3,0V0c.012,0,.022,0,.034,0h6.507V6.162H15.591A2.29,2.29,0,0,0,13.3,8.452Z" transform="translate(-1276.188 -1020.17)" fill="#fff"/>
  </g>
</svg>
